<?xml version="1.0" encoding="UTF-8" standalone="no"?>
<!DOCTYPE svg PUBLIC "-//W3C//DTD SVG 1.1//EN" "http://www.w3.org/Graphics/SVG/1.1/DTD/svg11.dtd">
<svg width="100%" height="100%" viewBox="0 0 346 185" version="1.1" xmlns="http://www.w3.org/2000/svg" xmlns:xlink="http://www.w3.org/1999/xlink" xml:space="preserve" xmlns:serif="http://www.serif.com/" style="fill-rule:evenodd;clip-rule:evenodd;stroke-linecap:round;stroke-linejoin:round;stroke-miterlimit:1.5;">
    <g transform="matrix(0.973345,0,0,0.908546,-324.534,-210.194)">
        <rect id="Artboard1" x="333.422" y="231.352" width="354.917" height="203.551" style="fill:none;"/>
        <g id="Artboard11" serif:id="Artboard1">
            <g transform="matrix(0.785947,0,0,0.842002,163.258,131.645)">
                <g transform="matrix(68.6549,-69.9876,69.9876,68.6549,305.819,302.881)">
                    <path d="M0.137,-0C0.109,-0 0.087,-0.008 0.072,-0.025C0.057,-0.041 0.046,-0.063 0.039,-0.09C0.032,-0.117 0.028,-0.146 0.027,-0.179C0.026,-0.212 0.025,-0.244 0.025,-0.277C0.025,-0.293 0.025,-0.314 0.025,-0.34C0.026,-0.365 0.026,-0.392 0.027,-0.419C0.027,-0.446 0.027,-0.469 0.028,-0.491C0.029,-0.511 0.029,-0.526 0.03,-0.534C0.031,-0.582 0.041,-0.622 0.06,-0.653C0.079,-0.684 0.106,-0.7 0.143,-0.7C0.185,-0.7 0.214,-0.682 0.23,-0.646C0.245,-0.609 0.253,-0.557 0.253,-0.489L0.253,-0.459C0.266,-0.482 0.281,-0.508 0.3,-0.535C0.318,-0.562 0.338,-0.588 0.36,-0.613C0.382,-0.638 0.405,-0.658 0.43,-0.674C0.455,-0.689 0.48,-0.697 0.505,-0.697C0.536,-0.697 0.562,-0.685 0.583,-0.662C0.603,-0.638 0.613,-0.609 0.613,-0.574C0.613,-0.543 0.604,-0.512 0.586,-0.483C0.567,-0.453 0.542,-0.426 0.51,-0.402C0.478,-0.378 0.441,-0.358 0.398,-0.343C0.423,-0.332 0.448,-0.318 0.473,-0.303C0.498,-0.287 0.522,-0.27 0.543,-0.251C0.564,-0.232 0.58,-0.211 0.593,-0.189C0.606,-0.167 0.612,-0.143 0.612,-0.118C0.612,-0.09 0.607,-0.067 0.596,-0.05C0.585,-0.033 0.57,-0.02 0.553,-0.012C0.536,-0.004 0.517,-0 0.498,-0C0.464,-0 0.432,-0.011 0.403,-0.033C0.374,-0.055 0.346,-0.084 0.322,-0.119C0.297,-0.154 0.273,-0.191 0.252,-0.23C0.252,-0.201 0.251,-0.172 0.249,-0.145C0.246,-0.118 0.241,-0.093 0.234,-0.071C0.227,-0.049 0.215,-0.032 0.2,-0.019C0.185,-0.006 0.164,-0 0.137,-0Z" style="fill:url(#_Radial1);fill-rule:nonzero;"/>
                </g>
                <g transform="matrix(80.2676,-56.2927,56.2927,80.2676,345.22,263.993)">
                    <path d="M0.142,-0.485C0.109,-0.485 0.082,-0.497 0.059,-0.521C0.036,-0.544 0.025,-0.573 0.025,-0.607C0.025,-0.63 0.03,-0.65 0.041,-0.668C0.051,-0.686 0.065,-0.701 0.083,-0.712C0.1,-0.723 0.12,-0.728 0.142,-0.728C0.163,-0.728 0.183,-0.723 0.201,-0.712C0.218,-0.701 0.232,-0.686 0.243,-0.668C0.254,-0.65 0.259,-0.63 0.259,-0.607C0.259,-0.584 0.254,-0.564 0.243,-0.546C0.232,-0.527 0.218,-0.513 0.201,-0.501C0.183,-0.491 0.163,-0.485 0.142,-0.485ZM0.142,-0C0.115,-0 0.096,-0.008 0.083,-0.023C0.07,-0.038 0.061,-0.062 0.057,-0.094C0.052,-0.125 0.05,-0.166 0.049,-0.216C0.049,-0.266 0.051,-0.307 0.056,-0.339C0.06,-0.371 0.069,-0.395 0.082,-0.409C0.095,-0.425 0.115,-0.432 0.142,-0.432C0.169,-0.432 0.189,-0.425 0.202,-0.409C0.215,-0.395 0.223,-0.371 0.228,-0.339C0.233,-0.307 0.235,-0.266 0.235,-0.216C0.236,-0.166 0.234,-0.125 0.229,-0.094C0.224,-0.062 0.215,-0.038 0.202,-0.023C0.189,-0.008 0.169,-0 0.142,-0Z" style="fill:url(#_Radial2);fill-rule:nonzero;"/>
                </g>
                <g transform="matrix(87.8102,-43.6019,43.6019,87.8102,359.982,251.84)">
                    <path d="M0.337,-0C0.314,-0 0.29,-0.005 0.266,-0.014C0.242,-0.023 0.221,-0.037 0.202,-0.055C0.183,-0.073 0.169,-0.095 0.16,-0.12C0.154,-0.137 0.15,-0.157 0.147,-0.182C0.144,-0.207 0.142,-0.233 0.141,-0.261C0.141,-0.289 0.14,-0.316 0.14,-0.343C0.114,-0.344 0.089,-0.346 0.066,-0.35C0.042,-0.354 0.023,-0.362 0.008,-0.373C-0.007,-0.384 -0.015,-0.4 -0.015,-0.421C-0.015,-0.447 -0.008,-0.467 0.006,-0.48C0.02,-0.493 0.039,-0.501 0.063,-0.505C0.086,-0.51 0.112,-0.512 0.14,-0.513C0.141,-0.534 0.142,-0.555 0.146,-0.577C0.149,-0.598 0.154,-0.618 0.161,-0.637C0.168,-0.656 0.179,-0.671 0.192,-0.683C0.205,-0.694 0.223,-0.7 0.244,-0.7C0.273,-0.7 0.294,-0.691 0.307,-0.673C0.32,-0.655 0.328,-0.632 0.331,-0.603C0.334,-0.574 0.336,-0.544 0.335,-0.513C0.37,-0.514 0.4,-0.512 0.427,-0.509C0.454,-0.506 0.475,-0.498 0.49,-0.487C0.505,-0.476 0.513,-0.458 0.513,-0.433C0.513,-0.408 0.504,-0.389 0.487,-0.376C0.47,-0.363 0.447,-0.355 0.419,-0.35C0.391,-0.346 0.361,-0.344 0.33,-0.343C0.33,-0.33 0.33,-0.317 0.33,-0.304C0.329,-0.29 0.329,-0.276 0.329,-0.262C0.329,-0.224 0.332,-0.197 0.337,-0.181C0.341,-0.169 0.346,-0.161 0.354,-0.158C0.361,-0.155 0.369,-0.153 0.38,-0.153C0.391,-0.152 0.404,-0.15 0.419,-0.146C0.434,-0.143 0.446,-0.135 0.455,-0.122C0.464,-0.109 0.468,-0.092 0.468,-0.072C0.468,-0.049 0.456,-0.032 0.433,-0.019C0.409,-0.006 0.377,-0 0.337,-0Z" style="fill:url(#_Radial3);fill-rule:nonzero;"/>
                </g>
                <g transform="matrix(95.4195,-22.5138,22.5138,95.4195,398.924,231.943)">
                    <path d="M0.217,-0C0.158,-0 0.112,-0.01 0.077,-0.029C0.042,-0.048 0.025,-0.073 0.025,-0.104C0.025,-0.125 0.032,-0.141 0.047,-0.152C0.061,-0.162 0.078,-0.167 0.098,-0.167C0.114,-0.167 0.126,-0.164 0.134,-0.159C0.141,-0.154 0.148,-0.148 0.154,-0.143C0.16,-0.138 0.167,-0.135 0.176,-0.135C0.19,-0.135 0.197,-0.14 0.197,-0.15C0.197,-0.163 0.189,-0.173 0.173,-0.179C0.158,-0.185 0.138,-0.193 0.115,-0.204C0.083,-0.219 0.06,-0.237 0.046,-0.258C0.032,-0.278 0.025,-0.299 0.025,-0.32C0.025,-0.345 0.034,-0.369 0.052,-0.392C0.07,-0.415 0.096,-0.433 0.129,-0.448C0.162,-0.463 0.201,-0.47 0.247,-0.47C0.286,-0.47 0.32,-0.465 0.351,-0.454C0.382,-0.443 0.406,-0.429 0.424,-0.41C0.442,-0.392 0.451,-0.372 0.451,-0.35C0.451,-0.329 0.444,-0.314 0.431,-0.303C0.418,-0.292 0.4,-0.287 0.379,-0.287C0.367,-0.287 0.358,-0.289 0.35,-0.293C0.344,-0.296 0.337,-0.3 0.332,-0.303C0.326,-0.306 0.318,-0.308 0.308,-0.308C0.303,-0.308 0.298,-0.306 0.294,-0.303C0.29,-0.299 0.288,-0.294 0.288,-0.289C0.288,-0.285 0.29,-0.281 0.293,-0.277C0.296,-0.273 0.302,-0.27 0.31,-0.267C0.331,-0.26 0.351,-0.252 0.371,-0.242C0.39,-0.231 0.406,-0.218 0.42,-0.202C0.433,-0.185 0.439,-0.164 0.439,-0.139C0.439,-0.096 0.419,-0.062 0.378,-0.037C0.337,-0.012 0.284,-0 0.217,-0Z" style="fill:url(#_Radial4);fill-rule:nonzero;"/>
                </g>
                <g transform="matrix(98.0349,-0.961726,0.961726,98.0349,435.259,222.017)">
                    <path d="M0.267,-0C0.218,-0 0.175,-0.012 0.139,-0.037C0.102,-0.061 0.074,-0.095 0.055,-0.139C0.035,-0.182 0.025,-0.233 0.025,-0.29C0.025,-0.346 0.034,-0.39 0.051,-0.422C0.069,-0.454 0.094,-0.47 0.127,-0.47C0.15,-0.47 0.168,-0.466 0.181,-0.457C0.193,-0.448 0.201,-0.438 0.205,-0.425C0.21,-0.411 0.212,-0.398 0.212,-0.383C0.212,-0.364 0.211,-0.345 0.209,-0.326C0.206,-0.307 0.205,-0.286 0.205,-0.264C0.205,-0.233 0.212,-0.21 0.225,-0.196C0.237,-0.181 0.252,-0.174 0.267,-0.174C0.284,-0.174 0.298,-0.181 0.311,-0.196C0.323,-0.21 0.329,-0.233 0.329,-0.264C0.329,-0.286 0.328,-0.306 0.326,-0.323C0.324,-0.34 0.323,-0.36 0.323,-0.382C0.323,-0.405 0.329,-0.426 0.34,-0.444C0.351,-0.461 0.374,-0.47 0.408,-0.47C0.441,-0.47 0.466,-0.454 0.483,-0.422C0.5,-0.39 0.509,-0.346 0.509,-0.29C0.509,-0.233 0.5,-0.182 0.482,-0.139C0.464,-0.095 0.437,-0.061 0.402,-0.037C0.366,-0.012 0.321,-0 0.267,-0Z" style="fill:url(#_Radial5);fill-rule:nonzero;"/>
                </g>
                <g transform="matrix(95.3006,23.012,-23.012,95.3006,480.011,220.591)">
                    <path d="M0.42,-0C0.393,-0 0.375,-0.008 0.364,-0.023C0.353,-0.038 0.346,-0.057 0.344,-0.08C0.342,-0.102 0.341,-0.126 0.341,-0.149C0.341,-0.184 0.336,-0.213 0.326,-0.234C0.316,-0.256 0.298,-0.267 0.273,-0.267C0.25,-0.267 0.234,-0.256 0.223,-0.234C0.212,-0.213 0.207,-0.184 0.207,-0.149C0.207,-0.126 0.206,-0.103 0.204,-0.08C0.203,-0.057 0.197,-0.039 0.186,-0.024C0.175,-0.009 0.156,-0.001 0.128,-0.001C0.107,-0.001 0.09,-0.009 0.077,-0.024C0.063,-0.039 0.052,-0.059 0.045,-0.084C0.038,-0.109 0.033,-0.135 0.029,-0.164C0.027,-0.193 0.025,-0.22 0.025,-0.247C0.025,-0.274 0.026,-0.301 0.029,-0.329C0.032,-0.357 0.037,-0.383 0.043,-0.407C0.051,-0.431 0.061,-0.45 0.074,-0.465C0.087,-0.48 0.105,-0.487 0.126,-0.487C0.164,-0.487 0.188,-0.47 0.197,-0.435C0.205,-0.444 0.218,-0.452 0.235,-0.46C0.253,-0.467 0.273,-0.471 0.296,-0.471C0.347,-0.471 0.389,-0.458 0.422,-0.432C0.455,-0.406 0.478,-0.37 0.494,-0.325C0.508,-0.279 0.516,-0.226 0.515,-0.166C0.515,-0.135 0.512,-0.108 0.506,-0.083C0.501,-0.058 0.491,-0.038 0.477,-0.023C0.464,-0.008 0.445,-0 0.42,-0Z" style="fill:url(#_Radial6);fill-rule:nonzero;"/>
                </g>
                <g transform="matrix(87.192,44.8253,-44.8253,87.192,524.755,230.755)">
                    <path d="M0.276,-0C0.226,-0 0.182,-0.01 0.145,-0.029C0.107,-0.049 0.078,-0.076 0.057,-0.111C0.035,-0.145 0.025,-0.184 0.025,-0.229C0.025,-0.272 0.035,-0.312 0.057,-0.349C0.078,-0.386 0.107,-0.415 0.143,-0.437C0.181,-0.459 0.223,-0.47 0.271,-0.47C0.316,-0.47 0.354,-0.461 0.386,-0.443C0.418,-0.425 0.443,-0.402 0.46,-0.375C0.476,-0.347 0.485,-0.318 0.485,-0.287C0.485,-0.256 0.478,-0.231 0.464,-0.212C0.45,-0.192 0.432,-0.177 0.409,-0.167C0.387,-0.156 0.363,-0.149 0.338,-0.146C0.313,-0.143 0.288,-0.142 0.265,-0.145C0.242,-0.147 0.222,-0.151 0.206,-0.156C0.218,-0.137 0.233,-0.124 0.252,-0.117C0.27,-0.11 0.289,-0.107 0.31,-0.108C0.33,-0.109 0.348,-0.111 0.365,-0.114C0.386,-0.119 0.403,-0.118 0.416,-0.111C0.429,-0.104 0.436,-0.094 0.437,-0.079C0.438,-0.067 0.434,-0.055 0.425,-0.043C0.416,-0.031 0.399,-0.021 0.376,-0.013C0.353,-0.004 0.319,-0 0.276,-0ZM0.209,-0.278C0.216,-0.267 0.225,-0.26 0.238,-0.256C0.251,-0.251 0.264,-0.25 0.277,-0.251C0.29,-0.252 0.301,-0.256 0.31,-0.262C0.319,-0.268 0.323,-0.276 0.323,-0.287C0.323,-0.298 0.319,-0.309 0.31,-0.318C0.301,-0.327 0.286,-0.331 0.267,-0.331C0.248,-0.331 0.234,-0.325 0.224,-0.314C0.214,-0.302 0.209,-0.29 0.209,-0.278Z" style="fill:url(#_Radial7);fill-rule:nonzero;"/>
                </g>
                <g transform="matrix(75.2574,62.8337,-62.8337,75.2574,561.759,248.323)">
                    <path d="M0.312,-0C0.264,-0 0.224,-0.007 0.191,-0.021C0.158,-0.034 0.132,-0.052 0.111,-0.074C0.09,-0.096 0.073,-0.12 0.062,-0.146C0.05,-0.172 0.041,-0.198 0.036,-0.223C0.031,-0.248 0.028,-0.271 0.027,-0.292C0.025,-0.313 0.025,-0.328 0.025,-0.338C0.025,-0.369 0.027,-0.401 0.03,-0.434C0.033,-0.467 0.039,-0.5 0.046,-0.532C0.053,-0.563 0.063,-0.592 0.076,-0.617C0.088,-0.642 0.103,-0.663 0.12,-0.678C0.137,-0.693 0.158,-0.701 0.182,-0.701C0.203,-0.701 0.223,-0.694 0.241,-0.68C0.258,-0.666 0.267,-0.644 0.267,-0.615C0.267,-0.586 0.263,-0.558 0.254,-0.531C0.245,-0.503 0.239,-0.475 0.236,-0.446C0.251,-0.455 0.268,-0.461 0.285,-0.465C0.302,-0.468 0.319,-0.47 0.336,-0.47C0.371,-0.47 0.405,-0.462 0.438,-0.446C0.471,-0.429 0.498,-0.404 0.519,-0.371C0.54,-0.338 0.55,-0.295 0.55,-0.243C0.55,-0.202 0.541,-0.163 0.522,-0.126C0.502,-0.089 0.475,-0.058 0.44,-0.035C0.404,-0.012 0.361,-0 0.312,-0ZM0.306,-0.158C0.324,-0.158 0.34,-0.165 0.354,-0.179C0.367,-0.192 0.374,-0.208 0.374,-0.227C0.374,-0.246 0.367,-0.262 0.354,-0.276C0.34,-0.29 0.324,-0.297 0.306,-0.297C0.288,-0.297 0.272,-0.29 0.259,-0.276C0.246,-0.262 0.239,-0.246 0.239,-0.227C0.239,-0.208 0.246,-0.192 0.259,-0.179C0.272,-0.165 0.288,-0.158 0.306,-0.158Z" style="fill:url(#_Radial8);fill-rule:nonzero;"/>
                </g>
                <g transform="matrix(63.5565,74.648,-74.648,63.5565,600.021,281.237)">
                    <path d="M0.142,-0.485C0.109,-0.485 0.082,-0.497 0.059,-0.521C0.036,-0.544 0.025,-0.573 0.025,-0.607C0.025,-0.63 0.03,-0.65 0.041,-0.668C0.051,-0.686 0.065,-0.701 0.083,-0.712C0.1,-0.723 0.12,-0.728 0.142,-0.728C0.163,-0.728 0.183,-0.723 0.201,-0.712C0.218,-0.701 0.232,-0.686 0.243,-0.668C0.254,-0.65 0.259,-0.63 0.259,-0.607C0.259,-0.584 0.254,-0.564 0.243,-0.546C0.232,-0.527 0.218,-0.513 0.201,-0.501C0.183,-0.491 0.163,-0.485 0.142,-0.485ZM0.142,-0C0.115,-0 0.096,-0.008 0.083,-0.023C0.07,-0.038 0.061,-0.062 0.057,-0.094C0.052,-0.125 0.05,-0.166 0.049,-0.216C0.049,-0.266 0.051,-0.307 0.056,-0.339C0.06,-0.371 0.069,-0.395 0.082,-0.409C0.095,-0.425 0.115,-0.432 0.142,-0.432C0.169,-0.432 0.189,-0.425 0.202,-0.409C0.215,-0.395 0.223,-0.371 0.228,-0.339C0.233,-0.307 0.235,-0.266 0.235,-0.216C0.236,-0.166 0.234,-0.125 0.229,-0.094C0.224,-0.062 0.215,-0.038 0.202,-0.023C0.189,-0.008 0.169,-0 0.142,-0Z" style="fill:url(#_Radial9);fill-rule:nonzero;"/>
                </g>
            </g>
            <g transform="matrix(1.60664,-1.49784,8.76769,10.7938,-3121.28,-2673.89)">
                <ellipse cx="371.167" cy="330.828" rx="2.375" ry="0.25" style="fill:rgb(184,241,255);"/>
            </g>
            <g transform="matrix(2.29601,0.105043,-0.569842,14.2956,-266.274,-4449.03)">
                <ellipse cx="371.167" cy="330.828" rx="2.375" ry="0.25" style="fill:rgb(184,241,255);"/>
            </g>
            <g transform="matrix(2.1457,-0.100286,0.468797,11.5121,-535.45,-3470.77)">
                <ellipse cx="371.167" cy="330.828" rx="2.375" ry="0.25" style="fill:rgb(184,241,255);"/>
            </g>
            <g transform="matrix(1.57293,-0.0735154,0.504915,12.399,-310.228,-3788.14)">
                <ellipse cx="371.167" cy="330.828" rx="2.375" ry="0.25" style="fill:rgb(184,241,255);"/>
            </g>
            <g transform="matrix(1.57293,-0.0735154,0.504915,12.399,-236.996,-3790.52)">
                <ellipse cx="371.167" cy="330.828" rx="2.375" ry="0.25" style="fill:rgb(184,241,255);"/>
            </g>
            <g transform="matrix(1.57293,-0.0735154,0.504915,12.399,-215.873,-3790.78)">
                <ellipse cx="371.167" cy="330.828" rx="2.375" ry="0.25" style="fill:rgb(184,241,255);"/>
            </g>
            <g transform="matrix(1.57293,-0.0735154,0.504915,12.399,-310.228,-3788.14)">
                <ellipse cx="371.167" cy="330.828" rx="2.375" ry="0.25" style="fill:rgb(184,241,255);"/>
            </g>
            <g transform="matrix(3.32854,-0.155569,0.380135,9.33485,-869.443,-2743.1)">
                <ellipse cx="371.167" cy="330.828" rx="2.375" ry="0.25" style="fill:rgb(184,241,255);"/>
            </g>
            <g transform="matrix(2.32932,0.409879,-1.02422,6.68043,-28.7149,-2058.77)">
                <ellipse cx="371.167" cy="330.828" rx="2.375" ry="0.25" style="fill:rgb(184,241,255);"/>
            </g>
            <g transform="matrix(1.19558,-0.330103,1.34432,5.58822,-407.812,-1412.28)">
                <ellipse cx="371.167" cy="330.828" rx="2.375" ry="0.25" style="fill:rgb(184,241,255);"/>
            </g>
            <g transform="matrix(1.19558,-0.330103,1.34432,5.58822,-419.935,-1406.01)">
                <ellipse cx="371.167" cy="330.828" rx="2.375" ry="0.25" style="fill:rgb(184,241,255);"/>
            </g>
            <g transform="matrix(1.194,-0.733871,3.12722,5.83963,-1052.61,-1339.37)">
                <ellipse cx="371.167" cy="330.828" rx="2.375" ry="0.25" style="fill:rgb(184,241,255);"/>
            </g>
            <g transform="matrix(2.22272,0.0505629,-0.133408,6.7309,-360.056,-1902.41)">
                <ellipse cx="371.167" cy="330.828" rx="2.375" ry="0.25" style="fill:rgb(184,241,255);"/>
            </g>
            <g transform="matrix(1.60888,-1.16189,2.93841,4.66993,-1135.2,-808.28)">
                <ellipse cx="371.167" cy="330.828" rx="2.375" ry="0.25" style="fill:rgb(184,241,255);"/>
            </g>
            <g transform="matrix(2.17314,-0.923074,1.93758,5.23539,-990.852,-1096.27)">
                <ellipse cx="371.167" cy="330.828" rx="2.375" ry="0.25" style="fill:rgb(184,241,255);"/>
            </g>
            <g transform="matrix(1.57293,-0.0735154,0.504915,12.399,-236.996,-3790.52)">
                <ellipse cx="371.167" cy="330.828" rx="2.375" ry="0.25" style="fill:rgb(184,241,255);"/>
            </g>
            <g transform="matrix(0.919931,-0.0429958,0.0837656,4.35856,155.586,-1120.05)">
                <ellipse cx="371.167" cy="330.828" rx="2.375" ry="0.25" style="fill:rgb(184,241,255);"/>
            </g>
            <g transform="matrix(1.57293,-0.0735154,0.504915,12.399,-194.339,-3789.64)">
                <ellipse cx="371.167" cy="330.828" rx="2.375" ry="0.25" style="fill:rgb(184,241,255);"/>
            </g>
            <g transform="matrix(2.01543,0.672229,-2.44588,8.4164,632.074,-2745.04)">
                <ellipse cx="371.167" cy="330.828" rx="2.375" ry="0.25" style="fill:rgb(184,241,255);"/>
            </g>
            <g transform="matrix(2.59339,1.18492,-3.22783,8.10826,712.354,-2818.48)">
                <ellipse cx="371.167" cy="330.828" rx="2.375" ry="0.25" style="fill:rgb(184,241,255);"/>
            </g>
            <g transform="matrix(1.50251,0.728979,-4.12903,9.76766,1453.66,-3193.53)">
                <ellipse cx="371.167" cy="330.828" rx="2.375" ry="0.25" style="fill:rgb(184,241,255);"/>
            </g>
            <g transform="matrix(2.04093,-0.312119,1.6228,12.179,-618.307,-3573.86)">
                <ellipse cx="371.167" cy="330.828" rx="2.375" ry="0.25" style="fill:rgb(184,241,255);"/>
            </g>
            <g transform="matrix(0.581338,-0.521154,0.659323,0.844113,42.4095,399.113)">
                <path d="M658.578,355.251C658.578,354.456 657.703,353.811 656.626,353.811L636.77,353.811C635.692,353.811 634.818,354.456 634.818,355.251C634.818,356.046 635.692,356.691 636.77,356.691L656.626,356.691C657.703,356.691 658.578,356.046 658.578,355.251Z" style="fill:rgb(184,241,255);"/>
            </g>
            <g transform="matrix(-1.06734,-0.273736,-0.26128,1.16928,1179.95,75.3984)">
                <path d="M404.032,360.334C403.49,359.858 464.017,428.534 516.047,417.823C599.214,400.703 618.173,437.031 617.805,437.23C621.42,427.021 598.131,355.533 520.546,340.363C462.066,328.929 428.974,382.244 404.032,360.334Z" style="fill:url(#_Linear10);"/>
            </g>
            <g transform="matrix(0.917991,0,0,0.983464,58.3968,27.0911)">
                <path d="M459.43,327.567L441.946,346.385L453.944,354.533L447.68,365.928L467.232,380.242C467.232,380.242 449.254,374.053 430.556,373.271C414.094,372.583 396.663,377.208 396.663,377.208C396.663,377.208 412.064,359.658 420.908,352.096C438.962,336.66 459.43,327.567 459.43,327.567Z" style="fill:white;"/>
            </g>
            <g transform="matrix(1.01785,0.14964,-0.139678,1.09044,63.2697,-109.914)">
                <g transform="matrix(34.4458,-16.0463,16.0463,34.4458,468.217,395.831)">
                    <path d="M0.379,-0.001C0.304,-0.001 0.241,-0.015 0.188,-0.042C0.135,-0.069 0.094,-0.107 0.067,-0.157C0.039,-0.206 0.025,-0.265 0.025,-0.332C0.025,-0.397 0.035,-0.452 0.057,-0.499C0.078,-0.545 0.105,-0.583 0.14,-0.613C0.175,-0.642 0.213,-0.664 0.255,-0.679C0.297,-0.693 0.339,-0.7 0.382,-0.7C0.438,-0.7 0.486,-0.692 0.526,-0.676C0.566,-0.659 0.597,-0.638 0.618,-0.612C0.639,-0.586 0.65,-0.559 0.65,-0.531C0.65,-0.501 0.645,-0.478 0.633,-0.461C0.623,-0.444 0.609,-0.433 0.592,-0.426C0.575,-0.419 0.557,-0.416 0.539,-0.416C0.516,-0.416 0.499,-0.419 0.486,-0.424C0.472,-0.429 0.459,-0.433 0.446,-0.438C0.433,-0.443 0.415,-0.445 0.392,-0.445C0.349,-0.445 0.314,-0.432 0.289,-0.406C0.263,-0.38 0.25,-0.343 0.25,-0.294C0.25,-0.265 0.256,-0.242 0.268,-0.223C0.28,-0.204 0.296,-0.19 0.316,-0.181C0.335,-0.172 0.356,-0.167 0.379,-0.167C0.402,-0.167 0.421,-0.17 0.436,-0.175C0.451,-0.181 0.462,-0.187 0.469,-0.194C0.476,-0.201 0.48,-0.206 0.48,-0.209C0.435,-0.209 0.399,-0.214 0.372,-0.225C0.345,-0.235 0.331,-0.255 0.331,-0.285C0.331,-0.31 0.34,-0.332 0.358,-0.348C0.376,-0.366 0.409,-0.374 0.458,-0.374C0.505,-0.374 0.543,-0.369 0.57,-0.358C0.597,-0.346 0.616,-0.329 0.626,-0.306C0.637,-0.283 0.643,-0.252 0.643,-0.215C0.643,-0.175 0.631,-0.139 0.607,-0.106C0.583,-0.073 0.551,-0.048 0.511,-0.029C0.471,-0.01 0.427,-0 0.379,-0.001Z" style="fill:url(#_Linear11);fill-rule:nonzero;"/>
                </g>
                <g transform="matrix(37.2492,-7.51641,7.51641,37.2492,488.313,385.977)">
                    <path d="M0.181,0.002C0.135,0.002 0.099,-0.02 0.073,-0.065C0.046,-0.11 0.031,-0.168 0.026,-0.241C0.021,-0.331 0.031,-0.41 0.056,-0.48C0.081,-0.549 0.118,-0.602 0.169,-0.641C0.22,-0.68 0.28,-0.699 0.35,-0.699C0.421,-0.699 0.481,-0.68 0.532,-0.641C0.582,-0.602 0.62,-0.549 0.645,-0.48C0.67,-0.411 0.679,-0.332 0.673,-0.241C0.668,-0.166 0.653,-0.107 0.626,-0.064C0.6,-0.021 0.564,0.001 0.518,0.001C0.492,0.001 0.472,-0.004 0.458,-0.014C0.444,-0.023 0.434,-0.035 0.429,-0.051C0.423,-0.066 0.42,-0.081 0.42,-0.097C0.42,-0.112 0.421,-0.126 0.423,-0.137C0.402,-0.136 0.377,-0.136 0.348,-0.136C0.319,-0.135 0.295,-0.136 0.276,-0.137C0.278,-0.126 0.279,-0.112 0.279,-0.097C0.279,-0.081 0.276,-0.066 0.271,-0.051C0.265,-0.035 0.255,-0.023 0.241,-0.013C0.227,-0.003 0.207,0.002 0.181,0.002ZM0.269,-0.315C0.322,-0.317 0.374,-0.317 0.427,-0.315C0.43,-0.338 0.43,-0.361 0.426,-0.382C0.422,-0.403 0.414,-0.421 0.401,-0.434C0.388,-0.447 0.37,-0.454 0.347,-0.454C0.324,-0.454 0.306,-0.447 0.294,-0.434C0.281,-0.421 0.273,-0.404 0.27,-0.383C0.266,-0.362 0.266,-0.339 0.269,-0.315Z" style="fill:url(#_Linear12);fill-rule:nonzero;"/>
                </g>
                <g transform="matrix(37.9376,2.17767,-2.17767,37.9376,510.338,380.703)">
                    <path d="M0.412,-0C0.389,-0 0.37,-0.006 0.355,-0.019C0.34,-0.031 0.329,-0.046 0.324,-0.065C0.319,-0.084 0.315,-0.105 0.314,-0.128C0.313,-0.151 0.312,-0.174 0.313,-0.198C0.313,-0.221 0.313,-0.243 0.312,-0.263C0.311,-0.283 0.309,-0.299 0.306,-0.311C0.303,-0.323 0.296,-0.329 0.287,-0.329C0.274,-0.329 0.264,-0.324 0.259,-0.313C0.254,-0.302 0.251,-0.287 0.251,-0.269C0.251,-0.25 0.252,-0.23 0.255,-0.209C0.257,-0.188 0.259,-0.167 0.262,-0.146C0.265,-0.125 0.266,-0.106 0.266,-0.09C0.266,-0.057 0.259,-0.034 0.244,-0.021C0.229,-0.008 0.208,-0.002 0.182,-0.002C0.156,-0.002 0.133,-0.013 0.114,-0.035C0.094,-0.056 0.078,-0.084 0.065,-0.118C0.051,-0.153 0.042,-0.19 0.035,-0.23C0.028,-0.27 0.025,-0.308 0.025,-0.344C0.025,-0.388 0.03,-0.431 0.04,-0.472C0.049,-0.513 0.064,-0.55 0.084,-0.583C0.103,-0.616 0.128,-0.642 0.157,-0.661C0.186,-0.68 0.221,-0.69 0.261,-0.69C0.292,-0.69 0.318,-0.683 0.339,-0.67C0.36,-0.656 0.376,-0.639 0.389,-0.618C0.401,-0.597 0.409,-0.576 0.414,-0.555C0.419,-0.576 0.427,-0.597 0.439,-0.618C0.451,-0.639 0.467,-0.656 0.488,-0.67C0.509,-0.683 0.534,-0.69 0.565,-0.69C0.616,-0.69 0.659,-0.674 0.695,-0.643C0.73,-0.612 0.757,-0.569 0.776,-0.514C0.795,-0.459 0.804,-0.395 0.804,-0.322C0.804,-0.288 0.8,-0.252 0.793,-0.215C0.786,-0.177 0.775,-0.142 0.761,-0.11C0.748,-0.077 0.731,-0.051 0.712,-0.031C0.693,-0.01 0.671,-0 0.646,-0C0.619,-0 0.598,-0.007 0.583,-0.02C0.568,-0.033 0.56,-0.057 0.56,-0.09C0.56,-0.106 0.561,-0.125 0.564,-0.146C0.567,-0.167 0.569,-0.188 0.572,-0.209C0.575,-0.23 0.576,-0.25 0.576,-0.269C0.576,-0.287 0.574,-0.302 0.569,-0.313C0.564,-0.324 0.554,-0.329 0.541,-0.329C0.532,-0.329 0.525,-0.323 0.522,-0.311C0.518,-0.299 0.516,-0.283 0.515,-0.264C0.514,-0.244 0.513,-0.222 0.513,-0.199C0.513,-0.175 0.513,-0.151 0.511,-0.128C0.51,-0.105 0.507,-0.084 0.502,-0.065C0.497,-0.046 0.487,-0.031 0.472,-0.019C0.457,-0.006 0.437,-0 0.412,-0Z" style="fill:url(#_Linear13);fill-rule:nonzero;"/>
                </g>
                <g transform="matrix(36.3362,11.1211,-11.1211,36.3362,537.679,382.283)">
                    <path d="M0.367,-0C0.34,-0 0.311,-0.002 0.28,-0.006C0.249,-0.01 0.218,-0.018 0.188,-0.031C0.158,-0.044 0.131,-0.062 0.106,-0.087C0.081,-0.112 0.062,-0.145 0.047,-0.186C0.032,-0.227 0.025,-0.277 0.025,-0.338C0.025,-0.405 0.036,-0.465 0.059,-0.52C0.082,-0.575 0.116,-0.618 0.162,-0.651C0.208,-0.684 0.266,-0.7 0.335,-0.7C0.385,-0.7 0.426,-0.696 0.458,-0.687C0.489,-0.678 0.514,-0.667 0.532,-0.653C0.55,-0.639 0.563,-0.624 0.57,-0.607C0.577,-0.59 0.58,-0.574 0.58,-0.557C0.58,-0.54 0.576,-0.523 0.567,-0.507C0.558,-0.491 0.543,-0.478 0.524,-0.469C0.505,-0.46 0.486,-0.457 0.466,-0.458C0.446,-0.459 0.428,-0.459 0.412,-0.459C0.377,-0.459 0.35,-0.453 0.331,-0.441C0.311,-0.428 0.297,-0.409 0.289,-0.384C0.3,-0.385 0.312,-0.385 0.325,-0.386C0.338,-0.386 0.351,-0.386 0.365,-0.386C0.392,-0.386 0.419,-0.386 0.444,-0.385C0.469,-0.384 0.486,-0.382 0.496,-0.38C0.519,-0.375 0.537,-0.366 0.549,-0.353C0.561,-0.339 0.567,-0.323 0.567,-0.306C0.567,-0.289 0.561,-0.274 0.55,-0.261C0.539,-0.248 0.52,-0.238 0.495,-0.233C0.486,-0.231 0.468,-0.23 0.442,-0.229C0.415,-0.228 0.388,-0.227 0.359,-0.227C0.348,-0.227 0.337,-0.227 0.326,-0.228C0.315,-0.228 0.306,-0.228 0.297,-0.228C0.306,-0.207 0.321,-0.191 0.34,-0.18C0.359,-0.168 0.383,-0.162 0.413,-0.162C0.424,-0.162 0.441,-0.163 0.462,-0.166C0.483,-0.168 0.504,-0.166 0.524,-0.16C0.556,-0.15 0.572,-0.129 0.572,-0.097C0.572,-0.08 0.566,-0.064 0.555,-0.049C0.543,-0.034 0.522,-0.022 0.493,-0.013C0.463,-0.004 0.421,-0 0.367,-0Z" style="fill:url(#_Linear14);fill-rule:nonzero;"/>
                </g>
                <g transform="matrix(33.4997,17.9379,-17.9379,33.4997,555.901,387.467)">
                    <path d="M0.288,0.001C0.256,0.001 0.224,-0.003 0.193,-0.01C0.162,-0.017 0.133,-0.026 0.108,-0.039C0.083,-0.052 0.063,-0.067 0.048,-0.085C0.033,-0.103 0.025,-0.123 0.025,-0.146C0.025,-0.174 0.034,-0.196 0.051,-0.212C0.068,-0.227 0.088,-0.235 0.113,-0.235C0.136,-0.235 0.154,-0.232 0.169,-0.225C0.184,-0.218 0.197,-0.211 0.21,-0.203C0.222,-0.197 0.235,-0.193 0.249,-0.193C0.271,-0.193 0.282,-0.202 0.282,-0.219C0.282,-0.228 0.274,-0.235 0.259,-0.242C0.244,-0.249 0.224,-0.257 0.2,-0.266C0.176,-0.275 0.151,-0.287 0.125,-0.302C0.086,-0.325 0.06,-0.35 0.046,-0.378C0.032,-0.405 0.025,-0.437 0.025,-0.476C0.025,-0.515 0.037,-0.552 0.062,-0.586C0.087,-0.62 0.12,-0.647 0.162,-0.668C0.204,-0.689 0.251,-0.699 0.303,-0.699C0.353,-0.699 0.398,-0.691 0.439,-0.676C0.48,-0.661 0.512,-0.64 0.536,-0.615C0.559,-0.589 0.571,-0.56 0.571,-0.527C0.571,-0.5 0.566,-0.479 0.555,-0.463C0.544,-0.447 0.53,-0.435 0.514,-0.428C0.497,-0.421 0.481,-0.417 0.466,-0.417C0.443,-0.417 0.426,-0.418 0.415,-0.421C0.404,-0.424 0.395,-0.427 0.389,-0.43C0.382,-0.433 0.376,-0.435 0.369,-0.438C0.362,-0.441 0.351,-0.442 0.337,-0.442C0.329,-0.442 0.321,-0.439 0.313,-0.434C0.305,-0.429 0.301,-0.421 0.301,-0.41C0.301,-0.4 0.308,-0.392 0.323,-0.387C0.337,-0.381 0.352,-0.375 0.368,-0.369C0.427,-0.348 0.472,-0.323 0.503,-0.294C0.534,-0.265 0.549,-0.226 0.549,-0.179C0.549,-0.122 0.526,-0.078 0.481,-0.047C0.435,-0.015 0.371,0.001 0.288,0.001Z" style="fill:url(#_Linear15);fill-rule:nonzero;"/>
                </g>
            </g>
            <g transform="matrix(1.22478,0.0740047,-0.307241,6.08534,141.453,-1679.68)">
                <ellipse cx="371.167" cy="330.828" rx="2.375" ry="0.25" style="fill:rgb(255,235,184);"/>
            </g>
            <g transform="matrix(1.41814,0.0856881,-0.307241,6.08534,94.3243,-1688.88)">
                <ellipse cx="371.167" cy="330.828" rx="2.375" ry="0.25" style="fill:rgb(255,235,184);"/>
            </g>
            <g transform="matrix(1.00319,0.26795,-1.19334,4.96286,567.279,-1383.9)">
                <ellipse cx="371.167" cy="330.828" rx="2.375" ry="0.25" style="fill:rgb(255,235,184);"/>
            </g>
            <g transform="matrix(1.00319,0.26795,-1.19334,4.96286,578.319,-1381.37)">
                <ellipse cx="371.167" cy="330.828" rx="2.375" ry="0.25" style="fill:rgb(255,235,184);"/>
            </g>
            <g transform="matrix(1.30003,0.347235,-1.19334,4.96286,488.97,-1402.54)">
                <ellipse cx="371.167" cy="330.828" rx="2.375" ry="0.25" style="fill:rgb(255,235,184);"/>
            </g>
            <g transform="matrix(1.30003,0.347235,-1.19334,4.96286,507.2,-1391.24)">
                <ellipse cx="371.167" cy="330.828" rx="2.375" ry="0.25" style="fill:rgb(255,235,184);"/>
            </g>
            <g transform="matrix(0.596631,-0.639184,0.594871,0.637298,-48.666,428.627)">
                <path d="M436.428,218.678L461.33,264.186L428.127,264.186L436.428,218.678Z" style="fill:white;stroke:url(#_Linear16);stroke-width:10.94px;"/>
            </g>
            <g transform="matrix(-0.711401,0.355565,0.318345,0.731027,656.908,-75.0869)">
                <path d="M436.428,218.678L461.33,264.186L428.127,264.186L436.428,218.678Z" style="fill:white;stroke:url(#_Linear17);stroke-width:11.98px;"/>
            </g>
        </g>
    </g>
    <defs>
        <radialGradient id="_Radial1" cx="0" cy="0" r="1" gradientUnits="userSpaceOnUse" gradientTransform="matrix(-0.729272,0.64304,-1.37402,-1.57453,1.26066,1.02175)"><stop offset="0" style="stop-color:rgb(35,0,172);stop-opacity:1"/><stop offset="1" style="stop-color:rgb(114,205,224);stop-opacity:1"/></radialGradient>
        <radialGradient id="_Radial2" cx="0" cy="0" r="1" gradientUnits="userSpaceOnUse" gradientTransform="matrix(-0.599765,0.765258,-1.63813,-1.29753,0.869072,0.868701)"><stop offset="0" style="stop-color:rgb(35,0,172);stop-opacity:1"/><stop offset="1" style="stop-color:rgb(114,205,224);stop-opacity:1"/></radialGradient>
        <radialGradient id="_Radial3" cx="0" cy="0" r="1" gradientUnits="userSpaceOnUse" gradientTransform="matrix(-0.478058,0.84664,-1.81439,-1.03684,0.799668,0.772416)"><stop offset="0" style="stop-color:rgb(35,0,172);stop-opacity:1"/><stop offset="1" style="stop-color:rgb(114,205,224);stop-opacity:1"/></radialGradient>
        <radialGradient id="_Radial4" cx="0" cy="0" r="1" gradientUnits="userSpaceOnUse" gradientTransform="matrix(-0.273226,0.933106,-2.00249,-0.597556,0.521032,0.676868)"><stop offset="0" style="stop-color:rgb(35,0,172);stop-opacity:1"/><stop offset="1" style="stop-color:rgb(114,205,224);stop-opacity:1"/></radialGradient>
        <radialGradient id="_Radial5" cx="0" cy="0" r="1" gradientUnits="userSpaceOnUse" gradientTransform="matrix(-0.0611671,0.970359,-2.08491,-0.142192,0.285634,0.643204)"><stop offset="0" style="stop-color:rgb(35,0,172);stop-opacity:1"/><stop offset="1" style="stop-color:rgb(114,205,224);stop-opacity:1"/></radialGradient>
        <radialGradient id="_Radial6" cx="0" cy="0" r="1" gradientUnits="userSpaceOnUse" gradientTransform="matrix(0.177692,0.95591,-2.05649,0.371343,-0.00621493,0.675243)"><stop offset="0" style="stop-color:rgb(35,0,172);stop-opacity:1"/><stop offset="1" style="stop-color:rgb(114,205,224);stop-opacity:1"/></radialGradient>
        <radialGradient id="_Radial7" cx="0" cy="0" r="1" gradientUnits="userSpaceOnUse" gradientTransform="matrix(0.397986,0.887099,-1.91103,0.845581,-0.300181,0.774153)"><stop offset="0" style="stop-color:rgb(35,0,172);stop-opacity:1"/><stop offset="1" style="stop-color:rgb(114,205,224);stop-opacity:1"/></radialGradient>
        <radialGradient id="_Radial8" cx="0" cy="0" r="1" gradientUnits="userSpaceOnUse" gradientTransform="matrix(0.582615,0.778394,-1.67943,1.2436,-0.527922,0.925448)"><stop offset="0" style="stop-color:rgb(35,0,172);stop-opacity:1"/><stop offset="1" style="stop-color:rgb(114,205,224);stop-opacity:1"/></radialGradient>
        <radialGradient id="_Radial9" cx="0" cy="0" r="1" gradientUnits="userSpaceOnUse" gradientTransform="matrix(0.705779,0.668741,-1.44512,1.50953,-0.872551,1.08087)"><stop offset="0" style="stop-color:rgb(35,0,172);stop-opacity:1"/><stop offset="1" style="stop-color:rgb(114,205,224);stop-opacity:1"/></radialGradient>
        <linearGradient id="_Linear10" x1="0" y1="0" x2="1" y2="0" gradientUnits="userSpaceOnUse" gradientTransform="matrix(-20.5751,79.504,81.2988,20.1209,522.841,340.105)"><stop offset="0" style="stop-color:rgb(255,225,147);stop-opacity:1"/><stop offset="1" style="stop-color:rgb(222,137,0);stop-opacity:1"/></linearGradient>
        <linearGradient id="_Linear11" x1="0" y1="0" x2="1" y2="0" gradientUnits="userSpaceOnUse" gradientTransform="matrix(-0.281072,0.544941,-0.544941,-0.281072,1.83275,-0.262981)"><stop offset="0" style="stop-color:rgb(209,128,0);stop-opacity:1"/><stop offset="1" style="stop-color:rgb(137,73,0);stop-opacity:1"/></linearGradient>
        <linearGradient id="_Linear12" x1="0" y1="0" x2="1" y2="0" gradientUnits="userSpaceOnUse" gradientTransform="matrix(-0.145368,0.595676,-0.595676,-0.145368,1.15021,-0.536073)"><stop offset="0" style="stop-color:rgb(209,128,0);stop-opacity:1"/><stop offset="1" style="stop-color:rgb(137,73,0);stop-opacity:1"/></linearGradient>
        <linearGradient id="_Linear13" x1="0" y1="0" x2="1" y2="0" gradientUnits="userSpaceOnUse" gradientTransform="matrix(0.0104795,0.613068,-0.613068,0.0104795,0.40592,-0.63853)"><stop offset="0" style="stop-color:rgb(209,128,0);stop-opacity:1"/><stop offset="1" style="stop-color:rgb(137,73,0);stop-opacity:1"/></linearGradient>
        <linearGradient id="_Linear14" x1="0" y1="0" x2="1" y2="0" gradientUnits="userSpaceOnUse" gradientTransform="matrix(0.15571,0.593057,-0.593057,0.15571,-0.457417,-0.545809)"><stop offset="0" style="stop-color:rgb(209,128,0);stop-opacity:1"/><stop offset="1" style="stop-color:rgb(137,73,0);stop-opacity:1"/></linearGradient>
        <linearGradient id="_Linear15" x1="0" y1="0" x2="1" y2="0" gradientUnits="userSpaceOnUse" gradientTransform="matrix(0.267457,0.551751,-0.551751,0.267457,-1.04146,-0.340954)"><stop offset="0" style="stop-color:rgb(209,128,0);stop-opacity:1"/><stop offset="1" style="stop-color:rgb(137,73,0);stop-opacity:1"/></linearGradient>
        <linearGradient id="_Linear16" x1="0" y1="0" x2="1" y2="0" gradientUnits="userSpaceOnUse" gradientTransform="matrix(-25.2241,26.8799,-26.8006,-25.2988,454.812,238.274)"><stop offset="0" style="stop-color:rgb(240,187,102);stop-opacity:1"/><stop offset="1" style="stop-color:rgb(223,137,0);stop-opacity:1"/></linearGradient>
        <linearGradient id="_Linear17" x1="0" y1="0" x2="1" y2="0" gradientUnits="userSpaceOnUse" gradientTransform="matrix(15.2437,52.7776,50.6231,-15.8925,437.752,217.078)"><stop offset="0" style="stop-color:rgb(240,187,102);stop-opacity:1"/><stop offset="1" style="stop-color:rgb(223,137,0);stop-opacity:1"/></linearGradient>
    </defs>
</svg>
